<svg xmlns="http://www.w3.org/2000/svg" xmlns:xlink="http://www.w3.org/1999/xlink" viewBox="0 0 367.85 142.76"><defs><style>.cls-1{fill:#878787;}.cls-2{fill:url(#linear-gradient);}.cls-3{fill:#fff;}.cls-4{fill:#0069ba;}.cls-5{fill:#ba0000;}.cls-6{fill:#ffa000;}.cls-7{fill:#029bdb;}.cls-8{fill:#fdfefe;}.cls-9{fill:#e9e9e9;}.cls-10{fill:#f0f0f0;}.cls-11{fill:#c49a6a;}.cls-12{fill:#b18252;}.cls-13{fill:#fde6b9;}.cls-14{fill:#0054db;}.cls-15{fill:#edd1a8;}.cls-16{fill:#d4bc98;}.cls-17{fill:#a47b52;}.cls-18{fill:#8c6038;}.cls-19{fill:#b0884b;}.cls-20{fill:#fae5b9;}.cls-21{fill:#e9cea7;}.cls-22{fill:#e7cfaa;}.cls-23{fill:#c59c6f;}.cls-24{fill:#efcb59;}.cls-25{fill:#f1d371;}.cls-26{fill:#f3d67c;}.cls-27{fill:#ece8e4;}.cls-28{fill:#fefefe;}.cls-29{fill:#d9d5d1;}.cls-30{fill:#d2cfda;}.cls-31{fill:#d8b543;}.cls-32{fill:#d9b649;}.cls-33{fill:#d3d1ce;}.cls-34{fill:#d9b951;}.cls-35{fill:#102947;}.cls-36{fill:#d4d2cf;}.cls-37{fill:#6f6f6f;}.cls-38{fill:#6d6d6c;}.cls-39{fill:#aab2bb;}.cls-40{fill:#70706f;}.cls-41{fill:#d1cdc9;}.cls-42{fill:#dcd9d5;}.cls-43{fill:#d8d5d2;}.cls-44{fill:#1963db;}.cls-45{fill:#c7a745;}.cls-46{fill:#eae5e1;}.cls-47{fill:#ebe7e3;}.cls-48{fill:#dfdbd7;}.cls-49{fill:#ece4de;}.cls-50{fill:#848384;}.cls-51{fill:#e2deda;}.cls-52{fill:#f4f0ec;}.cls-53{fill:#f6f7f8;}.cls-54{fill:#f9f9fa;}.cls-55{fill:#f9fafa;}.cls-56{fill:#f0f1f1;}.cls-57{fill:#e1e3e5;}.cls-58{fill:#112947;}.cls-59{fill:#fea002;}</style><linearGradient id="linear-gradient" x1="34436.05" y1="21910.23" x2="35455.16" y2="23311.51" gradientTransform="translate(-966.01 -616.13) scale(0.03)" gradientUnits="userSpaceOnUse"><stop offset="0" stop-color="#5962aa"/><stop offset="0.48" stop-color="#cf5570"/><stop offset="1" stop-color="#eebf5b"/></linearGradient></defs><title>svg-sprites</title><g id="Layer_2" data-name="Layer 2"><g id="Layer_1-2" data-name="Layer 1"><path class="cls-1" d="M72.2,92.2c-10.8-15.7-12.8-17.3-12.8-23a14.3,14.3,0,0,1,28.6,0c0,5.8-2,7.4-12.8,23.1a1.82,1.82,0,0,1-3-.1Zm1.5-17.1a6,6,0,1,0-6-6A6,6,0,0,0,73.7,75.1Z"/><path class="cls-1" d="M12.8,104.5l7,.1a1.51,1.51,0,0,1,1.5,1.3l1.3,7.9a1.55,1.55,0,0,1-.9,1.7L17,117.7a24.69,24.69,0,0,0,8.5,14.2l4.1-3.1a1.65,1.65,0,0,1,1.9,0l6.4,4.8a1.71,1.71,0,0,1,.5,2l-3.2,6.3a1.5,1.5,0,0,1-1.8.8,30.56,30.56,0,0,1-22.3-37.1,2,2,0,0,1,1.7-1.1Z"/><path class="cls-1" d="M122.8,54.8A19.2,19.2,0,1,0,142,74,19.2,19.2,0,0,0,122.8,54.8Zm0,34.6A15.4,15.4,0,1,1,138.2,74,15.41,15.41,0,0,1,122.8,89.4Zm4.8-8.1L121,76.6a1.27,1.27,0,0,1-.4-.7V63.2a.9.9,0,0,1,.9-.9H124a.9.9,0,0,1,.9.9V74.1l5.2,3.8a1,1,0,0,1,.2,1.3l-1.5,2a.9.9,0,0,1-1.2.1Z"/><path class="cls-2" d="M43.9.3H5.3A5.25,5.25,0,0,0,0,5.5V44.1a5.34,5.34,0,0,0,5.3,5.3H43.9a5.34,5.34,0,0,0,5.3-5.3V5.5A5.31,5.31,0,0,0,43.9.3Z"/><g id="_2686385320288" data-name=" 2686385320288"><polygon class="cls-3" points="54.8 3.9 92.9 3.9 92.9 49.5 54.8 49.5 54.8 3.9"/><path class="cls-4" d="M98.5,5.7V44.3a5.34,5.34,0,0,1-5.3,5.3H83.8V30.1h6.6l1-7.4H83.8V18c0-2.1.6-3.6,3.7-3.6h3.9V7.8a49.4,49.4,0,0,0-5.7-.3c-5.7,0-9.5,3.5-9.5,9.8v5.5H69.5v7.4h6.7V49.6H54.7a5.34,5.34,0,0,1-5.3-5.3V5.7A5.34,5.34,0,0,1,54.7.4H93.3A5.25,5.25,0,0,1,98.5,5.7Z"/></g><path class="cls-3" d="M24.6,14.8A10.1,10.1,0,1,0,34.7,24.9,10.07,10.07,0,0,0,24.6,14.8Zm0,16.6a6.5,6.5,0,1,1,6.5-6.5A6.49,6.49,0,0,1,24.6,31.4ZM37.4,14.3A2.3,2.3,0,1,1,35.1,12,2.33,2.33,0,0,1,37.4,14.3Zm6.7,2.4a11.47,11.47,0,0,0-3.2-8.2c-2.3-2.3-5.1-3-8.2-3.2s-13-.2-16.2,0A11.47,11.47,0,0,0,8.3,8.5c-2.3,2.3-3,5.1-3.2,8.2s-.2,13,0,16.2a11.47,11.47,0,0,0,3.2,8.2c2.3,2.3,5.1,3,8.2,3.2s13,.2,16.2,0a11.47,11.47,0,0,0,8.2-3.2c2.3-2.3,3-5.1,3.2-8.2S44.3,20,44.1,16.7ZM39.9,36.4a6.72,6.72,0,0,1-3.7,3.7c-2.6,1-8.7.8-11.6.8s-9,.2-11.6-.8a6.72,6.72,0,0,1-3.7-3.7c-1-2.6-.8-8.7-.8-11.6s-.2-9,.8-11.6A6.72,6.72,0,0,1,13,9.5c2.6-1,8.7-.8,11.6-.8s9-.2,11.6.8a6.72,6.72,0,0,1,3.7,3.7c1,2.6.8,8.7.8,11.6S40.9,33.8,39.9,36.4Z"/><path class="cls-5" d="M142.1.3H103.5a5.34,5.34,0,0,0-5.3,5.3V44.2a5.34,5.34,0,0,0,5.3,5.3h38.6a5.34,5.34,0,0,0,5.3-5.3V5.5A5.31,5.31,0,0,0,142.1.3Z"/><g id="_2686385321856" data-name=" 2686385321856"><polygon class="cls-3" points="140.3 26.8 137.1 26.8 137.1 30 133.9 30 133.9 26.8 130.8 26.8 130.8 23.6 133.9 23.6 133.9 20.4 137.1 20.4 137.1 23.6 140.3 23.6 140.3 26.8"/><path class="cls-3" d="M116.2,35.8a11,11,0,0,1,0-22,10.27,10.27,0,0,1,7.3,2.9l-3,2.9a6,6,0,0,0-4.4-1.7,6.9,6.9,0,0,0,0,13.8c4.3,0,6-3.1,6.2-4.7h-6.2V23.2h10.3a9,9,0,0,1,.2,1.8c.1,6.3-4.1,10.8-10.4,10.8Z"/></g><path class="cls-1" d="M38,60.3A19,19,0,0,0,5.5,73.8,19.52,19.52,0,0,0,8,83.3L5.3,93.2l10.1-2.7a19.21,19.21,0,0,0,9.1,2.3h0A19.34,19.34,0,0,0,43.8,73.7,19.13,19.13,0,0,0,38,60.3ZM24.5,89.6a16.4,16.4,0,0,1-8.1-2.2l-.6-.3-6,1.6,1.6-5.9-.4-.6a15.49,15.49,0,0,1-2.4-8.4A16,16,0,1,1,24.5,89.6Zm8.7-11.8c-.5-.2-2.8-1.4-3.3-1.5a.8.8,0,0,0-1.1.2c-.3.5-1.2,1.5-1.5,1.9a.67.67,0,0,1-1,.1c-2.8-1.4-4.6-2.5-6.5-5.7-.5-.8.5-.8,1.4-2.6a.76.76,0,0,0,0-.8c-.1-.2-1.1-2.6-1.5-3.5s-.8-.8-1.1-.8h-.9a1.84,1.84,0,0,0-1.3.6,5.48,5.48,0,0,0-1.7,4,9.65,9.65,0,0,0,1.9,4.9c.2.3,3.4,5.1,8.1,7.2,3,1.3,4.2,1.4,5.7,1.2a4.89,4.89,0,0,0,3.2-2.3,4.36,4.36,0,0,0,.3-2.3c.1-.3-.2-.4-.7-.6Z"/><path class="cls-1" d="M89.2,109.3H58.1a3.59,3.59,0,0,0-3.6,3.6v21.5a3.59,3.59,0,0,0,3.6,3.6H89.2a3.59,3.59,0,0,0,3.6-3.6V112.9a3.59,3.59,0,0,0-3.6-3.6Zm0,3.6V116c-1.7,1.4-4.4,3.5-10.1,8-1.3,1-3.8,3.4-5.5,3.3s-4.2-2.4-5.5-3.3c-5.7-4.5-8.4-6.6-10.1-8v-3.1ZM58.1,134.5V120.6c1.7,1.4,4.1,3.3,7.9,6.2,1.6,1.3,4.5,4.1,7.7,4.1s6-2.8,7.7-4.1c3.7-2.9,6.1-4.8,7.9-6.2v13.9Z"/><g id="Layer_2-2" data-name="Layer 2"><g id="Layer_1-2-2" data-name="Layer 1-2"><circle class="cls-6" cx="329.9" cy="35.2" r="35"/><path class="cls-7" d="M330.3,57.9c-.6-.2-1.2-.5-1.7-.7a5.79,5.79,0,0,1-2.9-6.4c.8-3.2,1.3-6.5,2-9.7.1-.3.2-.6-.3-.7a2.2,2.2,0,0,1-1.6-3c.3-.9.1-1.2-.7-1.6a6.53,6.53,0,0,1-3.7-6.1,37.4,37.4,0,0,1,1-8.1,6.89,6.89,0,0,0,.1-3.2,3.19,3.19,0,0,0-2.5-2.7,3.63,3.63,0,0,0-3.6,1.3,5,5,0,0,0-1,3.3V48.8c0,.3.2,1-.2,1a7.39,7.39,0,0,1-2.1,0c-.3,0-.1-.5-.1-.8V24.7a58.05,58.05,0,0,1,0-5.9,6.21,6.21,0,0,1,8.1-5.4,5.7,5.7,0,0,1,3.9,5.1,22.42,22.42,0,0,1-.6,5.8,26.52,26.52,0,0,0-.5,5.6,4.39,4.39,0,0,0,1.9,3.4c.6.4.9.4,1-.3a10.46,10.46,0,0,1,.4-1.7,2.09,2.09,0,0,1,2.5-1.8.57.57,0,0,0,.7-.4h0a7.64,7.64,0,0,1,5.7-4.1c2.8-.5,5.6-1.2,8.3-1.9s5.7,1,6.4,3.4a8.75,8.75,0,0,1,.2,1.6V40.7c0,.4.1.9-.7.8a7.28,7.28,0,0,0-7.8,6.1,7.36,7.36,0,0,0,6,8.4,1.49,1.49,0,0,1,.6.1,6.5,6.5,0,0,1-3,1.7Zm-2.4-7.1h.2c.4-1.2.8-2.5,1.1-3.7,1.3-4.7,2.7-9.4,4-14.2a8.21,8.21,0,0,1,5.3-5.7c.5-.2,1-.3,1.6-.5q1.5-.6,3.3-1.2a2.44,2.44,0,0,0-1.2,0c-1.8.4-3.6.8-5.3,1.2a6.47,6.47,0,0,0-5.4,5.6c-.6,3.4-1.3,6.9-1.9,10.3-.7,2.8-1.2,5.5-1.7,8.2ZM342,30.2a1,1,0,0,0,1.1-1.1,1.09,1.09,0,0,0-.9-1.1H342a1.17,1.17,0,0,0-1.1.9V29a1.2,1.2,0,0,0,1.1,1.2Zm3.3-3.1c-.5.1-.9.4-.8.9a.77.77,0,0,0,.7.8h.1a1,1,0,0,0,.9-.7V28a1,1,0,0,0-.9-.9ZM327.8,51.3Z"/><path class="cls-7" d="M356.2,48.9a6.5,6.5,0,1,1-6.5-6.5,6.49,6.49,0,0,1,6.5,6.5Zm-6.5,3.3a3.3,3.3,0,1,0-3.3-3.3,3.33,3.33,0,0,0,3.3,3.3Z"/><path class="cls-7" d="M320.7,52.6H323c1.3,0,1.8.6,1.8,1.8v1.5c0,1.3-.5,1.8-1.8,1.8H306c-1.6,0-2.1-.5-2.1-2.1,0-2.8.2-3,3-3h13.8Zm-6.5,2.2h8.1c.3,0,.8.1.8-.3s-.4-.4-.8-.4h-16c-.3,0-.8-.1-.8.3s.5.4.8.4Z"/><path class="cls-7" d="M320.7,52.6H308.2v-.9a1.47,1.47,0,0,1,1.6-1.6h9.4a1.47,1.47,0,0,1,1.6,1.6A2.77,2.77,0,0,0,320.7,52.6Z"/><path class="cls-8" d="M327.9,50.8c.5-2.7,1-5.5,1.6-8.2.6-3.4,1.3-6.8,1.9-10.3a6.47,6.47,0,0,1,5.4-5.6c1.8-.4,3.6-.8,5.3-1.2a2.44,2.44,0,0,1,1.2,0q-1.8.6-3.3,1.2c-.5.2-1,.3-1.6.5a8.21,8.21,0,0,0-5.3,5.7c-1.3,4.7-2.7,9.5-4,14.2-.3,1.2-.7,2.5-1.1,3.7Z"/><path class="cls-8" d="M342,30.2c-.6-.1-1.1-.4-1-1.1a1,1,0,0,1,.9-1h.1a1,1,0,0,1,1.1.9v.2C343.2,29.8,342.7,30.2,342,30.2Z"/><path class="cls-8" d="M345.3,27.1c.5.1.9.3.8.9a.77.77,0,0,1-.7.8h-.1a.77.77,0,0,1-.8-.7V28C344.4,27.5,344.7,27.2,345.3,27.1Z"/><polygon class="cls-8" points="327.8 51.3 327.8 51.4 327.8 51.4 327.8 51.3"/><path class="cls-8" d="M349.7,52.2a3.24,3.24,0,0,1-3.3-3.2v-.1a3.27,3.27,0,0,1,3.3-3.3,3.33,3.33,0,0,1,3.3,3.3A3.4,3.4,0,0,1,349.7,52.2Z"/><path class="cls-8" d="M314.2,54.8h-7.8c-.3,0-.8.2-.8-.4s.5-.3.8-.3h16c.3,0,.8-.1.8.4s-.5.3-.8.3Z"/></g></g><g id="Layer_2-3" data-name="Layer 2"><g id="Layer_1-2-3" data-name="Layer 1-2"><circle class="cls-6" cx="184.3" cy="35.2" r="35"/><path class="cls-9" d="M189.7,69.9v.2h-5.6c-.5-.6-1.7-.9-1.1-2.1a1.37,1.37,0,0,1,1.2-.4c1.5-2,2.9-4.1,4.2-6.2a14.48,14.48,0,0,0,2.4-4.4.84.84,0,0,1,.8-.6h4.8c.5,0,1.1-.2,1.3.4s-.2,1.3-.5,1.8C194.7,62.4,192.4,66.2,189.7,69.9Z"/><path class="cls-10" d="M183.2,68c-.1.9,1.2,1.2.9,2.2h-5v-.3a6.1,6.1,0,0,1-2.7-2.8c-1.8-2.8-3.5-5.7-5.4-8.4-.4-.6-.8-1.2-.3-2,2-.4,4,0,6-.2,1.1.7,1.1,2,1.8,3a75.19,75.19,0,0,1,4.6,6.9C183.3,66.8,183.8,67.3,183.2,68Z"/><path class="cls-11" d="M174.8,45.5c-3.7-1.4-4.7-4.7-5.4-8.1a23,23,0,0,1,.1-10.1c1.2-5.1,4.1-8.6,9.1-10.3a5.09,5.09,0,0,1,5.8-.7,3,3,0,0,1,.5,2.1c0,4.3.1,8.6-.1,12.9a1.22,1.22,0,0,1-.5,1.2,54.67,54.67,0,0,1-6.3,4.4,6.48,6.48,0,0,0-2,1.7c-2,1.8-2.1,2.3-1.2,4.8C175.1,44.1,175.6,44.8,174.8,45.5Z"/><path class="cls-12" d="M184.5,31.7a2.66,2.66,0,0,1-.4-1.9V16.5l.1-.3a4.84,4.84,0,0,1,5.4.8c1.4.8,3.1,1.2,4.3,2.3,3.1,2.5,4.5,6,5,9.8a24.28,24.28,0,0,1-.9,10.7,4.53,4.53,0,0,1-1,2.1c-1.1-.9-.6-2.2-.7-3.3-.1-1.3-.4-2.3-1.8-2.7a3.36,3.36,0,0,1-1.3-2,6.63,6.63,0,0,0-.9-1.9c-.7-1.1-1.1-1.1-1.9,0a14.24,14.24,0,0,1-4.7,4.1,2,2,0,0,1-1.5.3c-.7-.2-.8-.8-.8-1.4v-.4a35.18,35.18,0,0,1,3.5-3.9C185.9,31.8,185.7,31.9,184.5,31.7Z"/><path class="cls-13" d="M174.8,45.5l-.9-2.4c-.9-2.5-.5-3.4,1.8-4.9a7,7,0,0,1,3.2-.3c.7.2,1-.6,1.6-.7a11.92,11.92,0,0,0,2-.8,1.5,1.5,0,0,1,1.7.1,1.55,1.55,0,0,1,.5,1.4c.1,5.2.1,10.4,0,15.5a1.45,1.45,0,0,1-.2.7c-.1.2-.1.3-.2.5a1.42,1.42,0,0,1-1.9.3,8.83,8.83,0,0,1-5.8-6.2Z"/><path class="cls-14" d="M189.7,69.9c-.2-.1-.7,0-.4-.5,2.8-4.1,5.4-8.5,8.4-12.5a9.72,9.72,0,0,0,3.4.1,10.53,10.53,0,0,1,7.8,2.7c-1.2,2.1-3.2,3.3-5,4.6A36.46,36.46,0,0,1,189.7,69.9Z"/><path class="cls-7" d="M170.6,56.6l5.3,8.3,3.2,4.9a27.78,27.78,0,0,1-9.8-2.9,29.36,29.36,0,0,1-9.9-7.2c2.3-2.4,5.3-2.8,8.4-2.7C168.7,56.9,169.7,57.2,170.6,56.6Z"/><path class="cls-15" d="M176.7,48.7c1.4,1.5,2.2,3.4,4,4.5a10.19,10.19,0,0,0,3.4,1.4,1.73,1.73,0,0,1,.7,1.6q.15,4.95,0,9.9a4.51,4.51,0,0,1-.7,2.5l-.9-.6c-1.5-2.9-3.6-5.4-5.3-8.1-.7-1.1-1.4-2.1-1.2-3.5Z"/><path class="cls-16" d="M184.1,68.6v-14h0c.8-1.1,2.2-1.4,3.2-2.3.5-.5,1.3-.8,1.4-1.7a5,5,0,0,1,1.4-1.5c.5-.2.9-.4,1.3.2.1,2.3-.3,4.7.2,7-.5,3.2-2.8,5.6-4.5,8.2C186.2,65.9,185.7,67.6,184.1,68.6Z"/><path class="cls-17" d="M184.1,16.5a17.83,17.83,0,0,0-5.6.6c0-1.6-.2-3.1.8-4.4,1.2-1.6,2.6-2.8,4.8-2.4,1.1,1.3,1.1,4.7,0,6.2Z"/><path class="cls-18" d="M184.1,16.4V10.2c3.7-.1,5.8,2.5,5.5,6.8A24.4,24.4,0,0,0,184.1,16.4Z"/><path class="cls-7" d="M194.6,35.3c2.2.4,2.6.8,2.6,3v3.5l-.5.7c-.4.4-.7,1-1.4,1a2,2,0,0,1-1.3-.4,2,2,0,0,1-1.2-1.5,10.57,10.57,0,0,1,0-5A1.54,1.54,0,0,1,194.6,35.3Z"/><path class="cls-7" d="M194.4,42.9l.9.2c.4.4.2.9,0,1.3a10.11,10.11,0,0,1-3.9,5l-1,.2a.91.91,0,0,1-.4-.8,2.73,2.73,0,0,1,.9-1.2,7.27,7.27,0,0,0,2.4-3.3C193.5,43.6,193.7,43.1,194.4,42.9Z"/><path class="cls-19" d="M195.3,44.4V43.1l1.3-.6A2.27,2.27,0,0,1,195.3,44.4Z"/><path class="cls-20" d="M180.4,37.6c-.4.8-.8,1.3-1.8.8s-2,.7-2.9-.3a50.06,50.06,0,0,1,8.1-5.8c1.4.5.6,1.4.3,2.1l-.1.2c-.9,2.2-3.2,2.1-4.9,2.8C179.5,37.4,180,37,180.4,37.6Z"/><path class="cls-21" d="M184.1,34.4c0-.7.2-1.5-.3-2.1l.7-.6,3.8-2.4A10.5,10.5,0,0,1,184.1,34.4Z"/><path class="cls-22" d="M194.4,42.9c-.6,2.5-1.6,4.7-4.1,5.8-.6.4-1.3,0-1.9.1-.4.1-1,0-1.1.6s.4.6.8.7.9.2,1,.8c0,1.7-1.6,2-2.5,2.8a5,5,0,0,1-2.4.9V38.5a3,3,0,0,0-.3-1.9c0-.7.7-.2,1-.6a16.06,16.06,0,0,0,5.8-5.2c1-1.4,1.1-1.4,2.1.1a15.12,15.12,0,0,1,2,4.5C192.8,37.1,192.7,41.3,194.4,42.9Z"/><path class="cls-23" d="M184.7,36l-1,.6-3.4,1.1a6.16,6.16,0,0,1-2.7.1,41.84,41.84,0,0,0,6.4-3.1C184.1,35.2,184,35.8,184.7,36Z"/><path class="cls-7" d="M189.1,50.9a12.75,12.75,0,0,1-1.9-.1c-.8-.1-1.1-.7-1.1-1.5a1.16,1.16,0,0,1,1.1-1.3c1.1-.1,2.2-.3,3,.7l.1.8A1.74,1.74,0,0,1,189.1,50.9Z"/></g></g><g id="Layer_2-4" data-name="Layer 2"><g id="Layer_1-2-4" data-name="Layer 1-2"><path class="cls-6" d="M222.2,38.1V36.7a1.7,1.7,0,0,0,0-1V34.2a1.7,1.7,0,0,0,0-1v-.8c.2-1.1.1-2.1.3-3.2a34.6,34.6,0,0,1,7.6-16.6A35.45,35.45,0,0,1,250.5.4c1.1-.2,2.3-.2,3.5-.3.2,0,.5.1.7-.1h.5a1.1,1.1,0,0,0,.8,0h2.5a1.1,1.1,0,0,0,.8,0h.5c.8.1,1.6.1,2.4.2a30.52,30.52,0,0,1,11.3,3.6,35.05,35.05,0,0,1,15.9,16.8,31.72,31.72,0,0,1,2.6,8.6c.2,1.1.1,2.2.3,3.3V38c-.2,1.2-.1,2.4-.3,3.5a35.28,35.28,0,0,1-27.4,28.3c-1.1.2-2.2.2-3.3.4h-8.1a29.75,29.75,0,0,1-5.2-.9,34.73,34.73,0,0,1-12.8-6.6,35.58,35.58,0,0,1-11.5-16.8,24.76,24.76,0,0,1-1.3-7.6C222.3,38.3,222.3,38.2,222.2,38.1Z"/><path class="cls-24" d="M222.2,35.8a.91.91,0,0,1,0,1Z"/><path class="cls-25" d="M222.2,33.3a.91.91,0,0,1,0,1Z"/><path class="cls-26" d="M259.3.2a.61.61,0,0,1-.8,0Z"/><path class="cls-26" d="M256,.2a.61.61,0,0,1-.8,0Z"/><path class="cls-27" d="M235.8,45.8c-.2-.1-.1-.3-.1-.5V27.1a.76.76,0,0,1,.5-.2h3.3c.6,0,.7.4.6.9-.1.1-.1.3-.2.4a1.22,1.22,0,0,0,.7,1.8c.3.1.6.1.8.2h.1c1.8.3,2.6,0,2.4-2v-.5c0-.5.3-.8.9-.8h10a2.77,2.77,0,0,1,.9.1.8.8,0,0,1,.2.9,1.4,1.4,0,0,0,1.2,2.3,5.85,5.85,0,0,0,1.3.2c.9,0,1.2-.4,1.3-1.2V27.8a.74.74,0,0,1,.8-.8H271a.6.6,0,0,1,.4.1.78.78,0,0,1,.2.8.37.37,0,0,1-.1.3c-.6,1.2-.3,1.8,1,2.1a.37.37,0,0,1,.3.1c.3.1.5.1.8.2a1.41,1.41,0,0,0,1.9-1.3V27.9c0-.4.2-.7.6-.7h3.1c.1,0,.2.1.3.2V38.7c0,.3-.1.6.1.9-.9.2-1.4-.3-1.4-1.2a3.39,3.39,0,0,0-1-2.7,2.91,2.91,0,0,0-4.8,2.4c.1.9,0,1.1-.8,1.4a11.3,11.3,0,0,0-3.2,1.9c-.2.2-.4.4-.7.2a2,2,0,0,1-.2-1.1V33.4c0-.8,0-.8-.8-.9a1.55,1.55,0,0,0-1.6.8,7.58,7.58,0,0,1-3,2.6,1.9,1.9,0,0,0-.7,2.1c.1.3.4.1.5,0a7.19,7.19,0,0,0,2.1-1.2c.2-.2.5-.5.9-.1a3.08,3.08,0,0,1,.1,1v8.8a3.75,3.75,0,0,0,.1,1v3.1c.2.2-.3.4,0,.7a1.1,1.1,0,0,1,.3.9,2.54,2.54,0,0,0,.2,1.2c.1.3.3.6-.1.8a.75.75,0,0,1-.5.1H252.2a2.55,2.55,0,0,1-1.2-.8c-2-1.8-4.1-3.5-6.1-5.4-.4-.3-.6-.5-1.1-.2a.55.55,0,0,1-.3-.5c0-.7-.5-.9-1.1-1s-1.4,0-2.1-.1C238.7,45.8,237.2,46.1,235.8,45.8Z"/><path class="cls-7" d="M235.7,26.9V20.7a1.49,1.49,0,0,1,1.5-1.6h40.4a1.79,1.79,0,0,1,1.4.4,1.61,1.61,0,0,1,.5,1.1v6.3c-1.2.2-2.4,0-3.6.1-.4,0-.4-.3-.4-.6a2.88,2.88,0,0,0-2.1-2.7c-.2,0-.3-.2-.4-.2-.7-.3-1.2,0-1.2.8v2c0,.3,0,.7-.4.8H260.3c-.4,0-.4-.3-.5-.5a3.48,3.48,0,0,0-2.3-2.9c-1-.4-1.4-.2-1.4.9v1.7c0,.3,0,.7-.4.8H244.5c-.5,0-.5-.4-.5-.7a3,3,0,0,0-2.2-2.6,1.42,1.42,0,0,0-.6-.2c-.5,0-.8.1-.8.7v2.1c0,.7-.2.8-.8.8A28.84,28.84,0,0,0,235.7,26.9Z"/><path class="cls-28" d="M264.6,50.5a12.17,12.17,0,0,1-.1-3.3,3.4,3.4,0,0,0,.1-1,8.32,8.32,0,0,1,2.5-4.8.76.76,0,0,1,.4-.2,11,11,0,0,1,3.7-2.3.9.9,0,0,0,.7-1.3c-.3-1.2.8-2.7,2.2-3.2,1.8-.6,4.1.7,4.2,2.6a4.05,4.05,0,0,1,0,1.1.51.51,0,0,0,.4.7,6.89,6.89,0,0,1,.8.3,10.68,10.68,0,0,1,6.1,11.1,1.7,1.7,0,0,1-.1.7,3.37,3.37,0,0,1-.5,1.7,10.44,10.44,0,0,1-9.6,7.1,10.7,10.7,0,0,1-8.1-3.2,8.34,8.34,0,0,1-1.6-2.1c-.1-.2-.3-.3-.4-.5s-.1-.2-.1-.3l-.3-.9c0-.3-.3-.5-.1-.8l-.3-1A.76.76,0,0,1,264.6,50.5Z"/><path class="cls-28" d="M235.8,45.8a.76.76,0,0,1,.4-.2c1.1.2,2.3-.1,3.4.1.9.1,1.8-.1,2.7,0s1.2.4,1.2,1.4c0,.2,0,.3.1.4a.83.83,0,0,1,.3.8v4.5a.83.83,0,0,1-.3.8c-1.3-1.1-2.4-2.4-3.7-3.6S237.2,47.2,235.8,45.8Z"/><path class="cls-29" d="M243.7,53.7V47.2c0-.1,0-.3.1-.3s.2.1.3.1c1,.9,1.9,1.8,2.9,2.6.8.7,1.7,1.5,2.6,2.2.7.6,1.3,1.3,2,1.9a.74.74,0,0,1-.7.3h-5.3a.84.84,0,0,1-.7-.2Z"/><path class="cls-30" d="M235.7,26.9h3.5c.5,0,.7-.1.7-.6v-2c0-.5,0-1,.5-1.1a1.15,1.15,0,0,1,1.5.4c.4.4.3.9.3,1.4a5.44,5.44,0,0,0,0,1.8.37.37,0,0,0,.1.3,3.35,3.35,0,0,1,0,1c0,.2-.1.5-.1.7a1,1,0,0,1-1.2,1.1,1.11,1.11,0,0,1-1.1-1.1v-.1c0-.2.1-.5.1-.7.2-.8.2-.8-.6-.8H236Q235.55,26.9,235.7,26.9Z"/><path class="cls-31" d="M265.8,54.2a11.59,11.59,0,0,0,4.6,4.2,10.7,10.7,0,0,0,14.2-5h0c.1-.1.1-.2.2-.3l.2-.5c0-.1.1-.1.1,0a8.45,8.45,0,0,1-1.6,3.3,10.41,10.41,0,0,1-6.2,4,11.86,11.86,0,0,1-4.2.1,11.21,11.21,0,0,1-5.6-2.9,11.41,11.41,0,0,1-2.1-2.8l.1-.1C265.7,54.1,265.8,54.2,265.8,54.2Z"/><path class="cls-32" d="M244.9,53.7h20.4c0-.1.1-.1.2,0l.1.1c0,.1.1.3,0,.4H244.9c-.3,0-.7.1-1-.3Z"/><path class="cls-33" d="M275.6,26.9h3.8V27h-3.1c-.4,0-.6.1-.6.6V29a1.75,1.75,0,0,1-1.7,1.7,2.35,2.35,0,0,1-.8-.2,1.85,1.85,0,0,0-.7-.2c.3-.5.8-.7,1.2-1.1.6-.3.2-.9.4-1.3a.75.75,0,0,0-.1-.5c-.2-.2-.6-.1-.7-.4,0-.1,0-.1.1-.2.3-.2.6-.1.9-.1C274.8,26.6,275.2,26.5,275.6,26.9Z"/><path class="cls-34" d="M285.1,52.6H285l.5-1.7A1.79,1.79,0,0,1,285.1,52.6Z"/><path class="cls-35" d="M255.4,39c3.5,1.1,3.3,5.2,1.4,7.1-2.8,2.7-7.6,1.6-8.6-2-.2-.8-.2-.8.6-.9.5-.1,1.1-.1,1.6-.2.3-.1.5,0,.6.4a2.13,2.13,0,0,0,2.3,1.8,2.3,2.3,0,0,0,1.9-2.3,2.22,2.22,0,0,0-2.8-2.6c-.6.1-.6-.1-.5-.5,0-.1.1-.3.1-.4.1-.4,0-.8.2-1.1s.7-.2,1-.3a1.82,1.82,0,0,0,1.4-2.1,1.6,1.6,0,0,0-1.4-1.5,1.86,1.86,0,0,0-2,1.4c-.1.6-.4.7-.9.5s-.8-.1-1.1-.2c-.9-.1-.9-.1-.6-1a4,4,0,0,1,3.5-3.1,4.58,4.58,0,0,1,4.9,1.9,3.39,3.39,0,0,1-.5,4.5A2.87,2.87,0,0,0,255.4,39Z"/><path class="cls-35" d="M267.5,41.2a12.3,12.3,0,0,0-2.7,4.7.37.37,0,0,1-.1.3c-.4-.1-.2-.4-.2-.6V37c0-.2.1-.5-.1-.7a13.27,13.27,0,0,1-3,1.8,1.45,1.45,0,0,1-.7.2V36.1c0-.3.1-.4.4-.5a7.83,7.83,0,0,0,3.9-3.5c.1-.3.3-.2.5-.2h1.4c.5,0,.7.1.6.6v8.1Q267.5,40.9,267.5,41.2Z"/><path class="cls-30" d="M273.4,26.9V27c.3.2.2.5.2.8v.7a1.08,1.08,0,0,1-.7,1.1,1.06,1.06,0,0,1-1.3-.2,1.25,1.25,0,0,1-.4-1.3c0-.2.1-.3.1-.5v-.8c-.1,0-.1-.1,0-.1V24.1c0-.5,0-1,.5-1.2a1.27,1.27,0,0,1,1.5.4c.4.4.3.9.3,1.4v1C273.7,26.3,273.7,26.6,273.4,26.9Z"/><path class="cls-30" d="M255.6,26.9V24.3c0-.5-.1-1,.4-1.2a1.21,1.21,0,0,1,1.4.2,1.53,1.53,0,0,1,.3,1.6,4.07,4.07,0,0,0,0,1.9V27a1.1,1.1,0,0,1,0,.8,5.07,5.07,0,0,0-.2,1.3,1.05,1.05,0,0,1-1.3.7c-.8-.2-1.1-.6-1-1.3,0-.2.1-.4.1-.6a2.49,2.49,0,0,0,.1-.8C255.5,27,255.5,26.9,255.6,26.9Z"/><path class="cls-33" d="M255.6,26.9V27H244.8c-.6,0-.8.2-.7.7v.9c.1,1.9-1.1,2.1-2.5,1.9-.2-.1-.4-.1-.6-.2,0-.1,0-.2.1-.2a2,2,0,0,0,1-1.6c.1-.1.2,0,.3.1a.1.1,0,0,0,.1-.1c-.1-.5.1-1.2-.6-1.5l-.1-.1c.1-.1.1-.1.2-.1.3-.2.5-.1.8-.1.5,0,.9-.1,1.3.2Z"/><path class="cls-36" d="M257.7,27v-.1l.1-.1c.3-.3.6-.1.9-.2a1.32,1.32,0,0,1,1.2.2h11.5v.1H260.7c-.6,0-.8.1-.8.8v1.5c0,.8-.5,1.2-1.3,1.3a4,4,0,0,1-1.9-.3V30a12.13,12.13,0,0,1,1.4-1c.1,0,.3,0,.3-.2A1.78,1.78,0,0,0,257.7,27Z"/><path class="cls-37" d="M242.2,28.5a1.56,1.56,0,0,1-1.2,1.8,1.48,1.48,0,0,1-1.5-.8,1.36,1.36,0,0,1,.2-1.6c.2.3.1.6.1.9.1.6.4.8,1,.8a.89.89,0,0,0,1-.8c0-.3-.1-.6.1-.9Q242.5,28.05,242.2,28.5Z"/><path class="cls-38" d="M271.3,27.8v.7c0,.8.3,1.1,1,1.1s1-.3,1-1v-.7c0-.1.1-.1.2-.1h0a1.61,1.61,0,0,1,.4.7.8.8,0,0,1-.2.9,1.78,1.78,0,0,1-1.2.9C271,30.1,270.5,29,271.3,27.8Z"/><path class="cls-39" d="M264.5,36.3c.2.2.1.4.1.6v8.5c0,.3-.1.5.2.8-.1.3,0,.7-.3.9Q264.5,41.85,264.5,36.3Z"/><path class="cls-40" d="M256.7,30.2h0a1.45,1.45,0,0,1-1.3-2.3c.2.2.1.4.1.6,0,.6.2,1,.8,1.1C256.7,29.7,256.8,29.9,256.7,30.2Z"/><path class="cls-41" d="M265.5,53.7h-.1l-.3-.7c-.1-.2-.1-.3.1-.3Z"/><path class="cls-42" d="M265.2,52.7l-.1.3c-.1-.4-.3-.7-.1-1.1Z"/><path class="cls-43" d="M264.6,50.5v.4s0,.2-.1.1S264.5,50.7,264.6,50.5Z"/><path class="cls-44" d="M241.9,26.9h-.1V23.5a3.15,3.15,0,0,1,2.3,3.4h-1.4c-.3-.3-.3-.8-.5-1.2C242.1,26.1,242.3,26.6,241.9,26.9Z"/><path class="cls-44" d="M259.8,26.9h-1.2c-.5-.3-.3-.9-.6-1.3-.2.4.1,1-.3,1.3V27a7.41,7.41,0,0,1-.1-2.1,7.57,7.57,0,0,0-.1-1.5A3.2,3.2,0,0,1,259.8,26.9Z"/><path class="cls-44" d="M273.4,25V23.5a2.93,2.93,0,0,1,2.2,3.4h-1.2c-.3-.3-.3-.8-.4-1.2C273.7,25.4,273.6,25.2,273.4,25Z"/><path class="cls-35" d="M275.1,58.9a10.06,10.06,0,0,1-2.6-19.8c.5-.1.6-.2.4-.7a2.37,2.37,0,0,1,.8-2.8,2.4,2.4,0,0,1,2.9.1,2.33,2.33,0,0,1,.7,2.8c-.3.5,0,.5.4.7a10.09,10.09,0,0,1-.4,19.6C276.5,58.8,275.8,58.9,275.1,58.9Z"/><path class="cls-45" d="M265.6,54.2c-.1-.1-.2-.3,0-.4.1.1.2.3.3.4Z"/><path class="cls-46" d="M242.2,28.5l-.3-.7c-.2-.3,0-.6,0-.8.7-.1.9.2.8.8v.8c-.1.1-.1.4-.4.3C242.4,28.8,242.3,28.6,242.2,28.5Z"/><path class="cls-7" d="M274.1,25.5a3.08,3.08,0,0,1,.3,1.3h-.9v-.9C273.5,25.7,273.6,25.3,274.1,25.5Z"/><path class="cls-47" d="M273.8,29.3v-.9c0-.4.1-.6.5-.5v.9C274.4,29.2,274.2,29.4,273.8,29.3Z"/><path class="cls-48" d="M274.3,27.8a1.2,1.2,0,0,0-.5.5l-.3-.5a.85.85,0,0,1,.8-.7Z"/><path class="cls-49" d="M274.3,27.2l-.8.7h-.1V27C273.7,27.1,274,26.9,274.3,27.2Z"/><path class="cls-44" d="M274.1,25.5c-.3,0-.4.3-.7.4v-1C273.7,25,273.9,25.3,274.1,25.5Z"/><path class="cls-27" d="M257.7,27c1,0,1,0,1,.9v.9c0,.3-.2.6-.6.3s-.2-.8-.4-1.1V27Z"/><path class="cls-50" d="M257.7,28c.5.3.4.7.4,1.2-.3.5-.6,1-1.3,1l-.3-.6c.5,0,.9-.1,1.1-.6C257.7,28.7,257.5,28.3,257.7,28Z"/><path class="cls-1" d="M257.7,28a2.08,2.08,0,0,1-.1,1.1,2.46,2.46,0,0,1,.1-1.2C257.6,27.9,257.6,27.9,257.7,28Z"/><path class="cls-7" d="M241.9,26.9V25.6c0-.1-.1-.3.1-.3s.3,0,.4.2a3.19,3.19,0,0,1,.3,1.4Z"/><path class="cls-51" d="M242.4,28.9l.4-.3c0,.2.1.4-.2.5S242.4,29.1,242.4,28.9Z"/><path class="cls-7" d="M257.7,26.8V25.5c0-.1-.1-.4.1-.4s.3.1.4.3c.3.4.2,1,.4,1.5A2.77,2.77,0,0,1,257.7,26.8Z"/><path class="cls-52" d="M266.7,49.8c-.1-.4.1-.5.5-.4s.6-.1.6-.5-.2-.6-.6-.5-.5-.1-.5-.5a8.59,8.59,0,0,1,7.4-7.4c.4,0,.7,0,.6.5s.1.5.5.5.6,0,.5-.5.2-.6.7-.5a8.5,8.5,0,0,1,7.1,6.8,4.33,4.33,0,0,0,.1.5c.1.4,0,.7-.5.6s-.4.2-.4.5,0,.5.4.5.6.1.5.6a8.6,8.6,0,0,1-7,7.3c-.5.1-1,.2-.9-.6.1-.4-.3-.2-.5-.3s-.5-.1-.4.3c.1.6-.1.7-.7.6A8.59,8.59,0,0,1,266.7,49.8Z"/><path class="cls-53" d="M276.1,36.1c.8.8,1,1.5.5,2.3-.2.3-.4.4-.7.3-.5-.1-.2-.5-.2-.8s0-.4.4-.5c.6,0,.2-.5.3-.8-.2-.2-.4,0-.6-.1C275.8,36.3,275.9,36.2,276.1,36.1Z"/><path class="cls-54" d="M276.1,36.1l-.3.4a12.75,12.75,0,0,1-2,.1c-.1,0-.2,0-.2-.1A1.78,1.78,0,0,1,276.1,36.1Z"/><path class="cls-55" d="M273.7,36.6h.1c.1,0,.1.1,0,.2,0,.4-.2.9.6.9.1,0,.1.2.1.3-.2.3-.3.7-.8.7A1.54,1.54,0,0,1,273.7,36.6Z"/><path class="cls-56" d="M273.7,38.6l.8-.7c0,.3.2.6-.1.8A.43.43,0,0,1,273.7,38.6Z"/><path class="cls-57" d="M273.8,36.7v-.2h2.1c.2,0,.4,0,.5.2Z"/><path class="cls-58" d="M273.6,48.8a1.52,1.52,0,0,1,1.4-1.5c.4,0,.5-.2.6-.5.5-1.1,1.1-2.2,1.6-3.3.2-.4.5-.8,1-.5s.3.7.1,1.1c-.6,1.1-1.1,2.2-1.7,3.3a.9.9,0,0,0-.1,1,.85.85,0,0,1,0,.7c-.3.6,0,.9.3,1.4.9,1.1,1.7,2.2,2.5,3.3.2.2.4.5,0,.8s-.5,0-.7-.3c-.9-1.2-1.8-2.3-2.7-3.5a.75.75,0,0,0-.9-.4A1.43,1.43,0,0,1,273.6,48.8Z"/></g></g><path class="cls-7" d="M176.8,131.3c-.6-.3-1.3-.5-1.9-.8a6.46,6.46,0,0,1-3.2-7c.9-3.5,1.5-7.1,2.2-10.6.1-.3.2-.6-.3-.7a2.38,2.38,0,0,1-1.7-3.3c.3-.9.1-1.3-.8-1.8a7.49,7.49,0,0,1-4.1-6.7,43.25,43.25,0,0,1,1.1-8.8,7.81,7.81,0,0,0,.1-3.4,3.51,3.51,0,0,0-2.8-2.9,3.67,3.67,0,0,0-3.9,1.4,5.16,5.16,0,0,0-1.1,3.6v31.1c0,.4.3,1-.2,1.1a5.93,5.93,0,0,1-2.3,0c-.3-.1-.2-.6-.2-.9V95.2c0-2.1-.2-4.3,0-6.4a6.85,6.85,0,0,1,8.9-5.9c2.6.9,3.9,2.9,4.3,5.6.3,2.2-.3,4.2-.7,6.3a20.71,20.71,0,0,0-.5,6.1,4.94,4.94,0,0,0,2.1,3.8c.6.4,1,.5,1.1-.4.1-.6.3-1.2.4-1.8a2.53,2.53,0,0,1,2.8-2,.53.53,0,0,0,.7-.4,8.29,8.29,0,0,1,6.2-4.5c3-.6,6.1-1.4,9.1-2s6.2,1.1,6.9,3.8a5.54,5.54,0,0,1,.2,1.8v13.7c0,.5.2.9-.7.9a8,8,0,0,0-2,15.8c.2,0,.4.1.7.1a7.58,7.58,0,0,1-3.2,1.9C188.3,131.3,182.5,131.3,176.8,131.3Zm-2.6-7.7h.2c.4-1.3.8-2.7,1.2-4,1.5-5.2,2.9-10.3,4.4-15.5a8.9,8.9,0,0,1,5.7-6.2c.6-.2,1.1-.4,1.7-.6,1.1-.4,2.3-.8,3.6-1.3a2.21,2.21,0,0,0-1.4,0c-1.9.4-3.9.9-5.8,1.3a6.9,6.9,0,0,0-5.9,6.1c-.7,3.7-1.4,7.5-2.1,11.2C175.3,117.6,174.7,120.6,174.2,123.6Zm15.4-22.5a1.06,1.06,0,0,0,1.2-1.2,1.16,1.16,0,0,0-1.2-1.2,1.13,1.13,0,0,0-1.2,1.1A1.31,1.31,0,0,0,189.6,101.1Zm3.5-3.4a.92.92,0,0,0-.9,1,.84.84,0,0,0,.9.9.92.92,0,0,0,1-.9C194.1,98,193.7,97.8,193.1,97.7Zm-19,26.4Z"/><path class="cls-59" d="M205,121.5a7.05,7.05,0,0,1-14.1-.1,7.05,7.05,0,1,1,14.1.1Zm-7,3.5a3.6,3.6,0,1,0,0-7.2,3.59,3.59,0,0,0-3.6,3.6A3.52,3.52,0,0,0,198,125Z"/><path class="cls-7" d="M166.4,125.5h2.5c1.4,0,2,.6,2,2v1.6c0,1.4-.6,2-2,2H150.3c-1.8,0-2.3-.5-2.3-2.3,0-3.1.2-3.3,3.2-3.3h15.2Zm-7.1,2.4h8.8c.3,0,.8.2.9-.4s-.5-.4-.8-.4H150.7c-.3,0-.9-.1-.9.4s.6.4.9.4Z"/><path class="cls-59" d="M166.4,125.5H152.7v-1a1.61,1.61,0,0,1,1.7-1.8h10.2a1.61,1.61,0,0,1,1.7,1.8A3.4,3.4,0,0,1,166.4,125.5Z"/><path class="cls-8" d="M174.2,123.6c.6-3,1.1-6,1.7-8.9.7-3.7,1.4-7.5,2.1-11.2a6.9,6.9,0,0,1,5.9-6.1c1.9-.4,3.9-.9,5.8-1.3a2.18,2.18,0,0,1,1.4,0l-3.6,1.3c-.6.2-1.1.4-1.7.6a8.68,8.68,0,0,0-5.7,6.2c-1.4,5.2-2.9,10.3-4.4,15.5-.4,1.4-.8,2.7-1.2,4A.77.77,0,0,0,174.2,123.6Z"/><path class="cls-8" d="M189.6,101.1a1.13,1.13,0,0,1-1.1-1.2,1.08,1.08,0,0,1,1.2-1.1,1.1,1.1,0,0,1,1.2,1.2C190.9,100.6,190.4,101,189.6,101.1Z"/><path class="cls-8" d="M193.1,97.7a1,1,0,0,1,.9,1c0,.6-.4.9-1,.9a.84.84,0,0,1-.9-.9A1.17,1.17,0,0,1,193.1,97.7Z"/><polygon class="cls-8" points="174.1 124.1 174.1 124.1 174.1 124.2 174.1 124.1"/><path class="cls-8" d="M198,125a3.5,3.5,0,0,1-3.6-3.5,3.59,3.59,0,0,1,3.6-3.6,3.55,3.55,0,1,1,0,7.1Z"/><path class="cls-8" d="M159.3,127.9h-8.5c-.4,0-.9.2-.9-.4s.5-.4.9-.4h17.5c.3,0,.9-.1.8.4s-.5.4-.9.4Z"/><path class="cls-7" d="M224.34,123.33a6.57,6.57,0,0,1-2.48,5.43,10.77,10.77,0,0,1-6.9,2,16.2,16.2,0,0,1-7.2-1.53v-5a29.65,29.65,0,0,0,4.36,1.62,12.93,12.93,0,0,0,3.26.47,4.64,4.64,0,0,0,2.72-.68,2.32,2.32,0,0,0,.95-2,2.23,2.23,0,0,0-.42-1.33,4.69,4.69,0,0,0-1.23-1.12,31.71,31.71,0,0,0-3.3-1.72,15.57,15.57,0,0,1-3.5-2.11,7.9,7.9,0,0,1-1.86-2.35,6.7,6.7,0,0,1-.7-3.13,6.57,6.57,0,0,1,2.29-5.31,9.51,9.51,0,0,1,6.32-1.93,15,15,0,0,1,3.78.47,26.16,26.16,0,0,1,3.77,1.32l-1.74,4.19a25.52,25.52,0,0,0-3.37-1.17,10.86,10.86,0,0,0-2.62-.33,3.47,3.47,0,0,0-2.35.71,2.35,2.35,0,0,0-.82,1.86,2.3,2.3,0,0,0,.33,1.24,3.63,3.63,0,0,0,1.05,1,32.54,32.54,0,0,0,3.42,1.78,13.62,13.62,0,0,1,4.89,3.42A6.68,6.68,0,0,1,224.34,123.33Z"/><path class="cls-7" d="M234.73,126.51a11.49,11.49,0,0,0,3.34-.61v3.95a11.92,11.92,0,0,1-4.87.89q-3.18,0-4.64-1.61a7,7,0,0,1-1.45-4.83v-9.38h-2.54v-2.25l2.92-1.77L229,106.8h3.39v4.14h5.45v4h-5.45v9.38a2.07,2.07,0,0,0,.63,1.67A2.51,2.51,0,0,0,234.73,126.51Z"/><path class="cls-7" d="M252.36,130.39l-1-2.64h-.14a7.84,7.84,0,0,1-2.76,2.34,8.9,8.9,0,0,1-3.7.65,6,6,0,0,1-4.41-1.6,6.14,6.14,0,0,1-1.61-4.56,5.13,5.13,0,0,1,2.17-4.57q2.17-1.47,6.53-1.63l3.38-.1v-.85q0-3-3-3a13.79,13.79,0,0,0-5.48,1.41l-1.76-3.58a15.82,15.82,0,0,1,7.45-1.76,9.28,9.28,0,0,1,6,1.71,6.3,6.3,0,0,1,2.09,5.18v13Zm-1.57-9-2.05.07a6.58,6.58,0,0,0-3.44.83,2.62,2.62,0,0,0-1.13,2.33q0,2.25,2.57,2.25a4.08,4.08,0,0,0,2.95-1.06,3.73,3.73,0,0,0,1.1-2.82Z"/><path class="cls-7" d="M270.39,110.58a8.57,8.57,0,0,1,1.79.16l-.4,5a6.12,6.12,0,0,0-1.57-.17,5.62,5.62,0,0,0-4,1.3,4.71,4.71,0,0,0-1.42,3.65v9.9h-5.31V110.94h4l.78,3.27h.26a7.32,7.32,0,0,1,2.44-2.64A6,6,0,0,1,270.39,110.58Z"/><path class="cls-7" d="M273.5,105.92q0-2.59,2.89-2.59t2.89,2.59a2.53,2.53,0,0,1-.72,1.92,3,3,0,0,1-2.17.69Q273.49,108.53,273.5,105.92ZM279,130.39h-5.31V110.94H279Z"/><path class="cls-7" d="M300,130.39h-5.31V119a5.73,5.73,0,0,0-.7-3.16,2.48,2.48,0,0,0-2.22-1.05,3.21,3.21,0,0,0-3,1.5,9.82,9.82,0,0,0-.92,4.92v9.15H282.6V110.94h4.05l.71,2.49h.3a5.38,5.38,0,0,1,2.26-2.1,7.34,7.34,0,0,1,3.39-.76q4.37,0,5.91,2.85h.47a5.25,5.25,0,0,1,2.3-2.1,7.68,7.68,0,0,1,3.44-.75,6.78,6.78,0,0,1,5,1.7q1.7,1.7,1.7,5.44v12.68h-5.32V119a5.72,5.72,0,0,0-.71-3.16,2.48,2.48,0,0,0-2.22-1.05,3.31,3.31,0,0,0-2.91,1.39,7.9,7.9,0,0,0-1,4.42Z"/><path class="cls-7" d="M326.27,130.74a6.45,6.45,0,0,1-5.38-2.49h-.28q.28,2.44.28,2.82V139h-5.31v-28h4.31l.75,2.52h.24a6.14,6.14,0,0,1,5.52-2.89,6.31,6.31,0,0,1,5.39,2.66,12.31,12.31,0,0,1,1.95,7.39,14.59,14.59,0,0,1-.91,5.41,7.59,7.59,0,0,1-2.6,3.5A6.66,6.66,0,0,1,326.27,130.74Zm-1.57-15.92a3.35,3.35,0,0,0-2.87,1.21,6.94,6.94,0,0,0-.94,4v.57a8.2,8.2,0,0,0,.93,4.49,3.32,3.32,0,0,0,2.95,1.36q3.57,0,3.57-5.88a8.41,8.41,0,0,0-.88-4.31A3,3,0,0,0,324.71,114.82Z"/><path class="cls-7" d="M344.95,130.74a10,10,0,0,1-7.34-2.59q-2.65-2.59-2.64-7.34t2.44-7.56a8.7,8.7,0,0,1,6.76-2.67,8.57,8.57,0,0,1,6.42,2.35,8.88,8.88,0,0,1,2.3,6.49V122H340.33a5.11,5.11,0,0,0,1.34,3.53,4.72,4.72,0,0,0,3.51,1.27,14.56,14.56,0,0,0,3.32-.37,16.64,16.64,0,0,0,3.27-1.17v4.11a12.48,12.48,0,0,1-3,1A18.72,18.72,0,0,1,344.95,130.74Zm-.75-16.39a3.37,3.37,0,0,0-2.64,1.07,4.94,4.94,0,0,0-1.1,3h7.45a4.43,4.43,0,0,0-1-3A3.48,3.48,0,0,0,344.2,114.35Z"/><path class="cls-7" d="M366.05,110.58a8.56,8.56,0,0,1,1.79.16l-.4,5a6.12,6.12,0,0,0-1.57-.17,5.62,5.62,0,0,0-4,1.3,4.72,4.72,0,0,0-1.42,3.65v9.9H355.2V110.94h4l.78,3.27h.26a7.31,7.31,0,0,1,2.45-2.64A6,6,0,0,1,366.05,110.58Z"/></g></g></svg>