<?xml version="1.0" encoding="utf-8"?>
<!-- Generator: Adobe Illustrator 21.0.2, SVG Export Plug-In . SVG Version: 6.00 Build 0)  -->
<svg version="1.1" id="Layer_1" xmlns="http://www.w3.org/2000/svg" xmlns:xlink="http://www.w3.org/1999/xlink" x="0px" y="0px"
	 viewBox="0 0 380.3 123.3" style="enable-background:new 0 0 380.3 123.3;" xml:space="preserve">
<style type="text/css">
	.st0{fill:#1A1A1A;}
	.st1{fill:#FFFFFF;}
	.st2{fill:#B3B3B3;}
	.st3{fill:#999999;}
	.st4{fill:none;}
	.st5{fill:#191919;}
	.st6{clip-path:url(#SVGID_2_);}
	.st7{fill:#808080;}
</style>
<title>logotipo-starimper</title>
<polygon class="st0" points="47.1,70.4 51,68.8 52.4,69.4 56.3,76.8 55.6,78 51.9,79.5 "/>
<path class="st1" d="M81.4,0.8l1.1,16.7c9.5,1,21.7,1.8,31.1,2.8c3.5,0.6,6.7-5.4,4.4-5.8C118.1,14.5,81.4,0.8,81.4,0.8z"/>
<polygon class="st2" points="209.8,22.7 213.5,34.1 225.5,34.1 215.7,41.1 219.5,52.4 209.8,45.4 200.1,52.4 203.8,41.1 194.1,34.1 
	206.1,34.1 "/>
<path class="st3" d="M133.3,78.7h-7v24.8h-12.4V78.7h-4.1V68.6h4.1V58.2h12.4v10.5h7V78.7z M172,103.5h-12.4v-3.8
	c-1,1.3-2.2,2.4-3.6,3.2c-2.2,1.2-4.6,1.8-7.1,1.8c-4.3,0-8.4-1.6-11.5-4.5c-4-3.6-6.2-8.7-6-14.1c-0.2-5.5,2.1-10.7,6.2-14.3
	c3.1-2.7,7.1-4.2,11.3-4.2c2.4,0,4.8,0.5,7,1.5c1.4,0.8,2.7,1.8,3.8,3v-3.4H172V103.5z M160,86c0-4.3-3.5-7.9-7.8-7.9
	c0,0-0.1,0-0.1,0c-4.4,0-7.9,3.5-7.9,7.9s3.5,7.9,7.9,7.9l0,0c2.1,0,4.1-0.8,5.6-2.3C159.2,90.1,160,88.1,160,86z M201.5,80
	c-1.6-0.8-3.4-1.2-5.2-1.2c-4,0-6.7,1.7-7.8,5c-0.5,1.6-0.7,3.2-0.7,4.8v14.9h-12.4V68.6h12.4v5.8c2.3-4.1,6.7-6.5,11.4-6.2
	c0.8,0,1.6,0,2.4,0.1L201.5,80z"/>
<path class="st1" d="M217.4,104.4h-12.6V55.8h12.6L217.4,104.4z M277.1,104.4h-11.7V88.1c0-2.8-0.3-4.8-0.9-5.8
	c-0.8-1.4-2.3-2.3-3.9-2.3c-1.8,0-3.6,0.9-4.5,2.5c-0.8,1.7-1.2,3.7-1.1,5.6v16.3h-11.7V88.1c0-2.8-0.2-4.7-0.7-5.5
	c-0.8-1.6-2.6-2.6-4.4-2.5c-1.7-0.1-3.3,0.8-4.3,2.2c-0.5,0.6-0.7,1.3-0.8,2.1c-0.2,1.2-0.3,2.5-0.2,3.7v16.3h-11.7v-33h11.7v4.1
	c1.1-1.1,2.4-2.1,3.8-2.9c2.1-1.1,4.5-1.7,6.9-1.7c2.9-0.1,5.8,0.7,8.1,2.5c1.2,1,2.3,2.3,3.1,3.6c0.8-1.3,1.8-2.5,3-3.5
	c2.3-1.8,5.1-2.7,8-2.7c2.3,0,4.6,0.6,6.6,1.8c2,1.2,3.4,3.1,4.1,5.3c0.4,1.6,0.6,3.3,0.6,5V104.4z M317.9,88
	c0,5.6-1.9,10.1-5.8,13.5c-2.9,2.6-6.8,4-10.7,4c-2.3,0-4.5-0.5-6.6-1.5c-1.4-0.7-2.6-1.7-3.6-2.8V121h-11.7V71.4h11.7v3.7
	c0.9-1.3,2.1-2.3,3.4-3.1c2.1-1.1,4.4-1.7,6.8-1.7c4,0,7.9,1.5,10.9,4.2C316,78,318.1,82.9,317.9,88z M305.8,87.9
	c0-1.8-0.6-3.5-1.8-4.9c-2.7-3.1-7.5-3.5-10.6-0.8c-0.1,0.1-0.3,0.2-0.4,0.4c-1.4,1.4-2.2,3.3-2.2,5.3c-0.1,2,0.7,3.9,2.2,5.3
	c1.4,1.4,3.3,2.2,5.3,2.2c2.2,0,4.3-0.9,5.7-2.6C305.2,91.4,305.8,89.7,305.8,87.9z M354.1,90.1h-24.4c0,4.9,2.4,7.4,7.1,7.4
	c2.3,0.1,4.5-1.1,5.6-3.1h11.3c-0.7,2.6-2,5-4,6.9c-3.2,2.9-7.4,4.4-12.7,4.4c-6.8,0-11.9-2.1-15.3-6.2c-2.6-3.2-4-7.2-3.8-11.3
	c0-5.3,1.6-9.5,4.8-12.8s7.7-4.9,13.5-4.9c7.2,0,12.3,2.6,15.4,7.9c1.8,3.1,2.7,6.7,2.6,10.3L354.1,90.1L354.1,90.1z M343.2,83.5
	c-0.8-3.8-3-5.7-6.6-5.7c-1.8-0.1-3.5,0.6-4.8,1.8c-1,1-1.7,2.4-1.8,3.9L343.2,83.5z M380.2,82.2c-1.6-0.8-3.3-1.2-5-1.2
	c-3.8,0-6.3,1.6-7.4,4.7c-0.5,1.5-0.7,3-0.6,4.6v14.1h-11.7v-33h11.7v5.5c1-1.7,2.4-3.1,4-4.2c2.1-1.2,4.4-1.7,6.8-1.7
	c0.8,0,1.5,0,2.3,0.1C380.2,71.1,380.2,82.2,380.2,82.2L380.2,82.2z"/>
<path class="st2" d="M229.6,35.7c23.5,1.8,45,2.8,68.6,5.8c14.4,2,27.5,4.3,41.4,8.3c11.8,3.6,22,7.5,31.4,15.3
	c-8.7-7.7-20.2-11.9-31.3-15.5c-13.9-4.1-27.1-6.5-41.5-8.6c-14.2-1.8-54.9-6.5-69.1-6C229.5,35.3,228.4,35.4,229.6,35.7z"/>
<path class="st4" d="M370.7,65.4C341,39.3,254.4,37.6,229.1,35.1"/>
<path class="st5" d="M12.2,92.6c3.7,0,6.7,2.4,6.7,5.4s-3,5.4-6.7,5.4S5.5,101,5.5,98S8.5,92.6,12.2,92.6z"/>
<path class="st5" d="M47.3,92.7c3.7,0,6.7,2.4,6.7,5.4s-3,5.4-6.7,5.4s-6.7-2.4-6.7-5.4S43.7,92.7,47.3,92.7z"/>
<polygon class="st1" points="7.9,33.8 40.2,33.8 40.2,60.5 7.9,60.5 "/>
<g>
	<defs>
		<rect id="SVGID_1_" x="7.9" y="33.8" width="32.3" height="26.7"/>
	</defs>
	<clipPath id="SVGID_2_">
		<use xlink:href="#SVGID_1_"  style="overflow:visible;"/>
	</clipPath>
	<g class="st6">
		<path id="_1" class="st7" d="M1.5,47.9l2.9,0.5c8.4,7.5,24.5-7.9,37-0.5h5.1v15.3h-45V47.9z"/>
	</g>
</g>
<polygon class="st4" points="7.9,33.8 40.2,33.8 40.2,60.5 7.9,60.5 "/>
<polygon class="st1" points="6.6,26.8 41.7,26.8 41.7,33.2 6.6,33.2 "/>
<polygon class="st1" points="4.4,60.4 43.2,60.4 59.4,91.5 59.5,95 1.4,95 0,92.1 "/>
<polygon class="st2" points="9.1,68.2 36.4,68.6 36.4,89.5 8.9,89.1 8.9,84.5 24.1,84.4 24.1,82.1 8.9,82.1 8.9,80.1 23.9,80.1 
	23.9,77.9 9.1,78.1 9.1,75.7 24,75.7 23.9,73.1 9.1,73.1 "/>
<path class="st3" d="M52.1,69.7c20.9-7.3,35.2,1.1,20.7,20.9c-0.9,1.8-0.9,3.3,0.4,3.6c11.1-0.2,20.3-8,20.3-18
	c0-17.3-30-21.6-40.1-31.2c-17.1-16.4-4-43,24.1-42.5V17C63.8,17.3,52,30.1,64.9,38.3C76,45.4,106,50.5,106,75.7
	c0,16-15.6,28.3-33.2,28.3c-12.2-0.8-15.1-7.1-7.5-19.6c6.3-8.9,2-10.8-9.5-8.1C55.8,76.4,52.1,69.7,52.1,69.7z"/>
<path class="st0" d="M78.6,0H82c1,0,1.8,0.8,1.8,1.8c0,0,0,0,0,0v15.7c0,1-0.8,1.8-1.8,1.8c0,0,0,0,0,0h-3.4c-1,0-1.8-0.8-1.8-1.8
	c0,0,0,0,0,0V1.8C76.8,0.8,77.6,0,78.6,0C78.6,0,78.6,0,78.6,0z"/>
</svg>
